<svg width="78" height="16" viewBox="0 0 78 16" fill="none" xmlns="http://www.w3.org/2000/svg">
<path d="M1.39033 3.97244C2.07242 2.80571 3.00581 1.90822 4.17255 1.24408C5.33928 0.597882 6.63167 0.256836 8.0138 0.256836C9.61134 0.256836 11.0294 0.651732 12.2679 1.42357C13.5064 2.21336 14.4039 3.3083 14.9783 4.74429H12.0346C11.6397 3.95449 11.1012 3.36215 10.4191 2.98521C9.73698 2.59031 8.92925 2.41081 8.03176 2.41081C7.04452 2.41081 6.16498 2.62621 5.37518 3.07495C4.60334 3.5237 3.99305 4.15194 3.56225 4.99558C3.13146 5.82127 2.89811 6.79056 2.89811 7.90345C2.89811 9.01634 3.11351 9.98563 3.56225 10.8113C4.011 11.637 4.60334 12.2832 5.37518 12.7319C6.14703 13.1807 7.02657 13.414 8.03176 13.414C8.92925 13.414 9.73698 13.2166 10.4191 12.8396C11.1012 12.4627 11.6397 11.8704 12.0346 11.0806H14.9783C14.4219 12.5165 13.5244 13.6294 12.2679 14.4013C11.0294 15.1731 9.61134 15.568 8.0138 15.568C6.61372 15.568 5.32133 15.2449 4.1546 14.5808C2.98786 13.9346 2.07242 13.0191 1.39033 11.8524C0.708233 10.6857 0.367188 9.37533 0.367188 7.90345C0.367188 6.43157 0.708233 5.13918 1.39033 3.97244Z" fill="#29313D" fill-opacity="0.8"/>
<path d="M21.7276 3.8649C22.32 3.52385 23.038 3.3623 23.8457 3.3623V5.91118H23.2175C22.2482 5.91118 21.5302 6.16247 21.0276 6.64712C20.525 7.13176 20.2916 7.9754 20.2916 9.19599V15.4425H17.8325V3.55975H20.2916V5.28293C20.6506 4.67264 21.1353 4.20595 21.7276 3.8649Z" fill="#29313D" fill-opacity="0.8"/>
<path d="M36.8953 10.4162H27.8306C27.9024 11.3675 28.2614 12.1214 28.8897 12.6958C29.5179 13.2702 30.2897 13.5574 31.2231 13.5574C32.5514 13.5574 33.4848 13.001 34.0233 11.906H36.6799C36.3209 13.001 35.6747 13.8985 34.7233 14.5806C33.7899 15.2806 32.6232 15.6216 31.2231 15.6216C30.0923 15.6216 29.0691 15.3703 28.1717 14.8498C27.2742 14.3472 26.5741 13.6292 26.0536 12.6958C25.533 11.7624 25.2817 10.7034 25.2817 9.48281C25.2817 8.26223 25.533 7.18524 26.0177 6.2698C26.5203 5.33641 27.2024 4.63637 28.0999 4.13377C28.9973 3.63118 30.0205 3.37988 31.1872 3.37988C32.3001 3.37988 33.3053 3.63118 34.1848 4.11582C35.0644 4.60047 35.7465 5.28256 36.2311 6.18005C36.7158 7.05959 36.9671 8.08273 36.9671 9.23152C36.985 9.64436 36.9491 10.0393 36.8953 10.4162ZM34.4182 8.42377C34.4002 7.52628 34.0771 6.79034 33.4489 6.25185C32.8207 5.71336 32.0309 5.42616 31.0975 5.42616C30.2538 5.42616 29.5179 5.69541 28.9256 6.2339C28.3153 6.77239 27.9563 7.50834 27.8486 8.42377H34.4182Z" fill="#29313D" fill-opacity="0.8"/>
<path d="M41.508 14.8502C40.6105 14.3476 39.8925 13.6296 39.3719 12.6962C38.8514 11.7628 38.6001 10.7038 38.6001 9.48319C38.6001 8.28055 38.8693 7.20356 39.3899 6.27017C39.9284 5.33678 40.6464 4.61879 41.5618 4.1162C42.4772 3.6136 43.5004 3.3623 44.6492 3.3623C45.798 3.3623 46.8032 3.6136 47.7365 4.1162C48.652 4.61879 49.3879 5.33678 49.9085 6.27017C50.429 7.20356 50.6982 8.28055 50.6982 9.48319C50.6982 10.6858 50.429 11.7628 49.8726 12.6962C49.3341 13.6296 48.5802 14.3476 47.6468 14.8681C46.7134 15.3707 45.6723 15.64 44.5415 15.64C43.4286 15.622 42.4055 15.3707 41.508 14.8502ZM46.3185 13.0372C46.8749 12.7321 47.3237 12.2834 47.6647 11.6731C48.0058 11.0628 48.1853 10.3448 48.1853 9.48319C48.1853 8.62159 48.0237 7.88565 47.6827 7.29331C47.3596 6.70097 46.9288 6.25222 46.3724 5.94708C45.8339 5.64193 45.2415 5.49833 44.6133 5.49833C43.985 5.49833 43.3927 5.64193 42.8542 5.94708C42.3157 6.25222 41.8849 6.70097 41.5798 7.29331C41.2567 7.88565 41.1131 8.62159 41.1131 9.48319C41.1131 10.7576 41.4362 11.7449 42.1003 12.4449C42.7465 13.1449 43.5722 13.486 44.5594 13.486C45.1697 13.486 45.7621 13.3424 46.3185 13.0372Z" fill="#29313D" fill-opacity="0.8"/>
<path d="M61.6299 3.95465C62.3658 4.34954 62.9402 4.92394 63.371 5.67783C63.7839 6.43172 63.9993 7.36511 63.9993 8.4421V15.4425H61.5581V8.80109C61.5581 7.74205 61.2889 6.91636 60.7683 6.35992C60.2298 5.78553 59.5118 5.51628 58.5964 5.51628C57.6809 5.51628 56.945 5.80348 56.4065 6.35992C55.868 6.93431 55.5988 7.74205 55.5988 8.80109V15.4425H53.1396V3.55975H55.5988V4.92394C55.9937 4.43929 56.5142 4.06235 57.1425 3.77515C57.7707 3.5059 58.4348 3.3623 59.1349 3.3623C60.0503 3.3623 60.894 3.55975 61.6299 3.95465Z" fill="#29313D" fill-opacity="0.8"/>
<path d="M77.9104 10.4162H68.8457C68.9175 11.3675 69.2765 12.1214 69.9048 12.6958C70.533 13.2702 71.3049 13.5574 72.2383 13.5574C73.5665 13.5574 74.4999 13.001 75.0384 11.906H77.695C77.336 13.001 76.6898 13.8985 75.7385 14.5806C74.8051 15.2806 73.6383 15.6216 72.2383 15.6216C71.1074 15.6216 70.0843 15.3703 69.1868 14.8498C68.2893 14.3472 67.5893 13.6292 67.0687 12.6958C66.5482 11.7624 66.2969 10.7034 66.2969 9.48281C66.2969 8.26223 66.5482 7.18524 67.0328 6.2698C67.5354 5.33641 68.2175 4.63637 69.115 4.13377C70.0125 3.63118 71.0356 3.37988 72.2024 3.37988C73.3152 3.37988 74.3204 3.63118 75.2 4.11582C76.0795 4.60047 76.7616 5.28256 77.2463 6.18005C77.7309 7.05959 77.9822 8.08273 77.9822 9.23152C78.0002 9.64436 77.9642 10.0393 77.9104 10.4162ZM75.4333 8.42377C75.4154 7.52628 75.0923 6.79034 74.464 6.25185C73.8358 5.71336 73.046 5.42616 72.1126 5.42616C71.269 5.42616 70.533 5.69541 69.9407 6.2339C69.3304 6.77239 68.9714 7.50834 68.8637 8.42377H75.4333Z" fill="#29313D" fill-opacity="0.8"/>
</svg>
