<svg width="76" height="20" viewBox="0 0 76 20" fill="none" xmlns="http://www.w3.org/2000/svg">
<path d="M5.3107 14.712C3.63841 10.0261 1.91386 5.39243 0.119629 0.776209C0.764158 0.793628 1.30417 0.793628 1.70482 0.793628C2.15773 0.793628 2.68032 0.793628 3.29001 0.776209L6.14685 9.22476L7.3488 12.5519C7.6101 12.0468 7.99334 11.2455 8.51593 10.1306C9.03852 9.01573 9.40433 8.197 9.63079 7.67441C9.31723 6.71633 8.91658 5.56663 8.44625 4.20789C7.97592 2.84915 7.54042 1.71687 7.19203 0.776209C7.76688 0.793628 8.27205 0.793628 8.70754 0.793628C9.19529 0.793628 9.70047 0.793628 10.2231 0.776209C10.5366 2.01301 10.9024 3.23239 11.2857 4.43435C11.8605 3.19755 12.3831 1.97817 12.8534 0.776209C13.4457 0.793628 13.916 0.793628 14.2818 0.793628C14.6999 0.793628 15.1702 0.793628 15.7103 0.776209C15.2748 1.64719 14.7348 2.76205 14.0902 4.12079C13.4457 5.47953 12.9231 6.61181 12.5399 7.50022C12.6967 7.98797 12.9754 8.82411 13.376 9.99123C13.7941 11.1584 14.0902 11.9945 14.2818 12.4648L17.0167 6.62923L19.0026 2.25688L19.6471 0.758789C20.3091 0.776209 20.8317 0.776209 21.2149 0.776209C21.6504 0.776209 22.173 0.776209 22.8001 0.758789L20.8839 4.5737L16.8774 12.7958L15.9716 14.6946C15.2399 14.6771 14.6128 14.6771 14.1077 14.6771C13.5676 14.6771 12.9405 14.6771 12.2263 14.6946C11.8257 13.3184 11.3728 11.9771 10.9024 10.6532C10.2579 11.9771 9.64821 13.3184 9.07336 14.6946C8.34173 14.6771 7.71462 14.6771 7.19203 14.6771C6.6346 14.6946 6.00749 14.712 5.3107 14.712Z" fill="#29313D" fill-opacity="0.8"/>
<path d="M23.8451 6.61179C23.9322 6.12404 24.0019 5.77565 24.0193 5.58403C24.0367 5.39242 24.089 5.07886 24.1412 4.67821C25.0645 4.46917 25.8832 4.31239 26.5974 4.2253C27.3116 4.1382 27.991 4.08594 28.6529 4.08594C29.402 4.08594 30.0813 4.17304 30.7084 4.34723C31.3355 4.52143 31.8233 4.80015 32.1717 5.18338C32.5201 5.56661 32.6943 6.10662 32.6943 6.82083C32.6943 7.20407 32.642 8.19699 32.5375 9.78218C32.433 11.3674 32.3633 13.0048 32.3459 14.712C31.8233 14.6945 31.353 14.6945 30.9175 14.6945C30.4994 14.6945 30.0116 14.6945 29.4542 14.712C29.5413 13.8932 29.611 12.9351 29.6633 11.8551L29.8026 9.31185C29.5413 9.48605 29.3497 9.60798 29.2103 9.67766C29.071 9.74734 28.9142 9.81702 28.7574 9.86928C28.5832 9.92154 28.2871 10.0086 27.8516 10.1306C27.4161 10.2525 27.0851 10.357 26.8238 10.4441C26.5626 10.5312 26.3361 10.6357 26.1271 10.7403C25.918 10.8448 25.7438 10.9841 25.6045 11.1235C25.4651 11.2629 25.3606 11.4022 25.2909 11.559C25.2212 11.7158 25.1864 11.8725 25.1864 12.0467C25.1864 12.3255 25.2735 12.5868 25.4303 12.7784C25.587 12.97 25.8135 13.1268 26.0574 13.2139C26.3013 13.301 26.5974 13.3358 26.9458 13.3358C27.1548 13.3358 27.3987 13.3184 27.6426 13.2835C27.8865 13.2487 28.2174 13.1616 28.6181 13.0222C28.4787 13.4055 28.3045 13.9803 28.1129 14.7642C27.6252 14.8513 27.2419 14.9036 26.9632 14.921C26.6845 14.9384 26.4058 14.9558 26.1619 14.9558C25.3083 14.9558 24.5941 14.8339 24.0541 14.6074C23.5141 14.381 23.096 14.0152 22.8347 13.51C22.5734 13.0048 22.4341 12.4997 22.4341 11.9945C22.4341 11.6983 22.4863 11.4196 22.5909 11.1235C22.6954 10.8274 22.8347 10.5835 23.0438 10.3396C23.2528 10.0957 23.4967 9.86928 23.8102 9.64282C24.1238 9.41637 24.5767 9.20733 25.169 8.99829C25.7612 8.78926 26.5451 8.58022 27.5206 8.37119C27.7819 8.31893 28.0432 8.24925 28.3219 8.17957C28.6007 8.10989 28.8271 8.02279 28.9839 7.95311C29.1407 7.88343 29.2974 7.77892 29.4194 7.65698C29.5413 7.53504 29.6284 7.4131 29.6981 7.29116C29.7678 7.16923 29.7852 7.02987 29.7852 6.89051C29.7852 6.62922 29.6981 6.40276 29.5239 6.21114C29.3497 6.01953 29.1232 5.89759 28.8445 5.82791C28.5658 5.75823 28.2697 5.72339 27.9387 5.72339C26.7193 5.72339 25.3432 6.01952 23.8451 6.61179Z" fill="#29313D" fill-opacity="0.8"/>
<path d="M34.6631 19.398C34.8373 17.4993 34.9941 15.0431 35.116 12.0121C35.2554 8.99845 35.325 6.54227 35.325 4.66095C36.6141 4.43449 37.6244 4.27771 38.3212 4.20803C39.0354 4.13835 39.7322 4.10352 40.429 4.10352C41.3523 4.10352 42.1884 4.20803 42.9549 4.43449C43.7213 4.64353 44.331 5.00934 44.7839 5.53193C45.2369 6.05452 45.5852 6.62937 45.8117 7.30874C46.0382 7.98811 46.1427 8.6849 46.1427 9.41653C46.1427 10.1656 46.0382 10.8798 45.8291 11.5591C45.6201 12.2385 45.2891 12.8656 44.8536 13.4056C44.4181 13.9457 43.913 14.3463 43.3381 14.6076C42.7633 14.8515 42.1361 14.9734 41.4568 14.9734C41.0561 14.9734 40.6555 14.9212 40.2722 14.8341C39.889 14.747 39.5406 14.6076 39.2445 14.4508C38.9483 14.294 38.7045 14.1373 38.5128 13.9805C38.3212 13.8237 38.0774 13.5798 37.7812 13.2663L37.6244 17.7083L37.6419 18.3877C37.6419 18.4748 37.6244 18.8232 37.6244 19.4154C36.9973 19.4154 36.5096 19.398 36.1786 19.398H34.6631ZM38.147 6.54227C38.0948 6.90809 38.0599 7.22164 38.0425 7.48294L37.9728 8.61522C37.938 9.10297 37.938 9.46879 37.938 9.69524C37.938 10.1133 37.9728 10.514 38.0599 10.8798C38.147 11.263 38.3212 11.6114 38.5651 11.925C38.809 12.2385 39.1225 12.4824 39.4709 12.6566C39.8193 12.8308 40.1851 12.9005 40.551 12.9005C41.0735 12.9005 41.5439 12.7611 41.9619 12.465C42.38 12.1688 42.711 11.7333 42.9549 11.1585C43.1987 10.5836 43.3033 9.97396 43.3033 9.32943C43.3033 8.61522 43.1813 8.00553 42.92 7.51778C42.6587 7.03003 42.3278 6.66421 41.8923 6.43776C41.4568 6.2113 40.969 6.10678 40.429 6.10678C39.7496 6.14162 38.9658 6.26356 38.147 6.54227Z" fill="#29313D" fill-opacity="0.8"/>
<path d="M47.9019 14.7123L48.1109 12.0645L48.3373 6.97794L48.4419 2.62301C48.4593 1.83913 48.4593 1.22944 48.4593 0.793945C49.1735 0.811365 49.6787 0.811365 49.9748 0.811365C50.3232 0.811365 50.7935 0.811365 51.3684 0.793945L51.1593 4.10369L50.9155 9.39928L50.811 13.3536L50.7935 14.7297C50.1838 14.7123 49.7135 14.7123 49.3651 14.7123C48.9993 14.6949 48.5115 14.7123 47.9019 14.7123ZM51.1593 8.91153L53.2323 6.38567C53.4065 6.17663 53.6155 5.89792 53.8594 5.58436C54.1033 5.27081 54.4168 4.85274 54.8001 4.34756C55.5143 4.36498 56.0194 4.36498 56.3504 4.36498C56.8033 4.36498 57.3608 4.36498 58.0575 4.34756L54.6955 8.19732L54.0859 8.92895C54.591 9.71283 55.9672 11.6464 58.2317 14.7297C57.6221 14.7123 57.0995 14.7123 56.664 14.7123C56.2285 14.7123 55.6885 14.7123 55.0439 14.7297C54.6433 14.0852 54.3297 13.5626 54.0859 13.1794C53.842 12.7961 53.6155 12.4477 53.3891 12.1516L51.6471 9.67799C51.5948 9.5909 51.4206 9.3296 51.1593 8.91153Z" fill="#29313D" fill-opacity="0.8"/>
<path d="M59.3813 14.7122C59.4859 13.6844 59.5555 12.8308 59.5904 12.1515C59.6601 11.0715 59.7123 9.79981 59.7646 8.38882C59.8168 6.97782 59.8517 5.61908 59.8691 4.33003C60.5311 4.34745 61.0362 4.34745 61.3672 4.34745C61.6633 4.34745 62.1685 4.34745 62.8479 4.33003C62.7608 5.51457 62.6737 6.64685 62.6214 7.72687C62.5866 8.80689 62.5343 10.0263 62.5169 11.4198C62.4995 12.8134 62.4821 13.9109 62.4821 14.7122C61.855 14.6948 61.3672 14.6948 60.984 14.6948C60.6356 14.6948 60.0956 14.7122 59.3813 14.7122ZM59.9388 2.55322C59.9736 1.85643 59.9736 1.31642 59.9736 0.933184V0.619629C60.6007 0.637049 61.0885 0.637049 61.4891 0.637049C62.0117 0.637049 62.5169 0.637049 62.9698 0.619629C62.9524 0.793826 62.935 0.985443 62.935 1.19448L62.8827 2.55322C62.3601 2.5358 61.8898 2.5358 61.4543 2.5358C61.0188 2.5358 60.5136 2.55322 59.9388 2.55322Z" fill="#29313D" fill-opacity="0.8"/>
<path d="M75.4946 14.7122C74.9024 14.6948 74.432 14.6948 74.1185 14.6948C73.7178 14.6948 73.2649 14.6948 72.7423 14.7122L72.7597 13.0225C72.5681 13.3012 72.3939 13.5451 72.2546 13.7193C72.1152 13.8935 71.9236 14.0677 71.6971 14.2245C71.4707 14.3812 71.2094 14.5206 70.9481 14.6251C70.6868 14.7296 70.3732 14.7993 70.0074 14.869C69.659 14.9387 69.2932 14.9735 68.8926 14.9735C68.1261 14.9735 67.4641 14.869 66.9067 14.6425C66.3493 14.4161 65.8964 14.0851 65.5654 13.6322C65.2344 13.1793 65.0776 12.5348 65.0776 11.6986V11.4896L65.2344 8.8592L65.3912 5.39268C65.3912 5.11397 65.4086 4.76557 65.4086 4.3475C66.0531 4.36492 66.5583 4.36492 66.9241 4.36492C67.3074 4.36492 67.7777 4.36492 68.3351 4.3475L68.0041 8.99856C67.9867 9.36437 67.9693 9.66051 67.9519 9.90438C67.9345 10.1483 67.9345 10.3399 67.9345 10.4444C67.9345 10.9321 68.0042 11.3328 68.1609 11.6638C68.3177 11.9947 68.5616 12.2386 68.9274 12.3954C69.2932 12.5696 69.6764 12.6567 70.0945 12.6567C70.4952 12.6567 70.861 12.587 71.2094 12.4302C71.5229 12.2909 71.8016 12.0993 72.0281 11.8554C72.2545 11.6115 72.4462 11.2805 72.6029 10.8625C72.7249 10.5663 72.812 10.1483 72.8642 9.62567C72.9165 9.25986 72.9513 8.61533 73.0036 7.69208C73.0559 6.59464 73.0907 5.46236 73.1255 4.33008C73.8049 4.3475 74.3101 4.3475 74.6759 4.3475C75.0765 4.3475 75.5295 4.3475 76.0346 4.33008C75.9475 5.30558 75.8604 6.52496 75.7733 7.9708C75.6862 9.41663 75.6166 10.636 75.5991 11.5767C75.5295 12.5522 75.512 13.5799 75.4946 14.7122Z" fill="#29313D" fill-opacity="0.8"/>
</svg>
