<svg width="84" height="25" viewBox="0 0 84 25" fill="none" xmlns="http://www.w3.org/2000/svg">
<path d="M2.88379 17.6849C2.02927 17.315 1.3533 16.7793 0.868646 16.0906C0.38399 15.4019 0.128906 14.5984 0.128906 13.6801H2.93481C2.99858 14.3688 3.26641 14.93 3.75107 15.3764C4.23572 15.8228 4.91169 16.0396 5.77897 16.0396C6.68451 16.0396 7.38598 15.8228 7.89615 15.3892C8.40631 14.9555 8.64864 14.3943 8.64864 13.7056C8.64864 13.1699 8.49559 12.7363 8.17674 12.3919C7.85789 12.0603 7.47527 11.7925 7.00336 11.6139C6.53146 11.4354 5.89376 11.2313 5.06474 11.0145C4.01891 10.7339 3.17713 10.4533 2.52668 10.1727C1.87622 9.89214 1.32779 9.44575 0.868646 8.85906C0.409499 8.25962 0.179924 7.46887 0.179924 6.47405C0.179924 5.55575 0.409499 4.75225 0.868646 4.06353C1.32779 3.37481 1.9655 2.85189 2.79451 2.48202C3.62353 2.11215 4.58008 1.93359 5.66418 1.93359C7.20743 1.93359 8.48283 2.31622 9.4649 3.09422C10.447 3.87221 10.9954 4.9308 11.1102 6.26998H8.215C8.16398 5.68329 7.89615 5.18589 7.38599 4.77776C6.87582 4.36962 6.21261 4.1528 5.38359 4.1528C4.6311 4.1528 4.0189 4.34412 3.547 4.72674C3.0751 5.10936 2.83278 5.65779 2.83278 6.38477C2.83278 6.86942 2.98582 7.27755 3.27917 7.59641C3.57251 7.91526 3.95513 8.15759 4.41428 8.33614C4.87343 8.5147 5.49838 8.71877 6.30189 8.93559C7.36047 9.22893 8.215 9.52227 8.87821 9.80286C9.54142 10.0962 10.1154 10.5426 10.5745 11.142C11.0464 11.7415 11.276 12.5577 11.276 13.5653C11.276 14.3816 11.0592 15.1468 10.6255 15.8611C10.1919 16.5753 9.55418 17.162 8.72516 17.5956C7.89615 18.0292 6.90133 18.2461 5.77897 18.2461C4.70762 18.2461 3.73831 18.0548 2.88379 17.6849Z" fill="#29313D" fill-opacity="0.8"/>
<path d="M18.8134 5.82356C19.5787 5.42819 20.4459 5.22412 21.4025 5.22412C22.4993 5.22412 23.5069 5.49196 24.4252 6.04038C25.3308 6.58881 26.045 7.3413 26.5679 8.32336C27.0908 9.30543 27.3459 10.4278 27.3459 11.7032C27.3459 12.9786 27.0908 14.1137 26.5679 15.1085C26.045 16.1161 25.3308 16.8941 24.4252 17.4553C23.5197 18.0165 22.5121 18.2971 21.4025 18.2971C20.4332 18.2971 19.5787 18.1057 18.8262 17.7104C18.0737 17.315 17.4615 16.8303 16.9896 16.2564V24.1129H14.375V5.42819H16.9896V7.29028C17.4487 6.70359 18.0482 6.21894 18.8134 5.82356ZM24.1574 9.43297C23.8003 8.79527 23.3284 8.31061 22.7289 7.99176C22.1422 7.66015 21.5045 7.49435 20.8413 7.49435C20.1781 7.49435 19.5532 7.66015 18.9665 8.00451C18.3798 8.34887 17.9079 8.83353 17.538 9.47123C17.1809 10.1089 17.0023 10.8742 17.0023 11.7415C17.0023 12.6087 17.1809 13.374 17.538 14.0244C17.8951 14.6749 18.367 15.1723 18.9665 15.5039C19.5532 15.8355 20.1781 16.0141 20.8413 16.0141C21.5173 16.0141 22.1422 15.8483 22.7289 15.5039C23.3156 15.1596 23.7875 14.6621 24.1574 13.9989C24.5145 13.3357 24.6931 12.5705 24.6931 11.7032C24.6931 10.8359 24.5145 10.0707 24.1574 9.43297Z" fill="#29313D" fill-opacity="0.8"/>
<path d="M30.0882 3.27256C29.7693 2.95371 29.6035 2.55833 29.6035 2.07368C29.6035 1.58902 29.7693 1.2064 30.0882 0.874792C30.407 0.543186 30.8024 0.390137 31.2871 0.390137C31.7462 0.390137 32.1416 0.55594 32.4604 0.874792C32.7793 1.19364 32.9451 1.58902 32.9451 2.07368C32.9451 2.55833 32.7793 2.95371 32.4604 3.27256C32.1416 3.59141 31.7462 3.75721 31.2871 3.75721C30.8152 3.75721 30.407 3.59141 30.0882 3.27256ZM32.5752 5.428V18.0801H29.9606V5.428H32.5752Z" fill="#29313D" fill-opacity="0.8"/>
<path d="M35.9295 8.32336C36.4524 7.3413 37.1794 6.57605 38.0849 6.04038C38.9905 5.50471 40.0108 5.22412 41.1204 5.22412C41.9494 5.22412 42.7657 5.40268 43.5692 5.75979C44.3727 6.11691 45.0104 6.60156 45.4823 7.18825V1.0918H48.1224V18.0802H45.4823V16.1799C45.0487 16.7921 44.462 17.3022 43.6967 17.6976C42.9442 18.093 42.0642 18.2971 41.0949 18.2971C39.998 18.2971 38.9905 18.0165 38.0722 17.4553C37.1666 16.8941 36.4396 16.1161 35.9167 15.1085C35.3938 14.101 35.126 12.9658 35.126 11.7032C35.126 10.4405 35.4066 9.30543 35.9295 8.32336ZM44.9594 9.47123C44.6023 8.83353 44.1304 8.33612 43.5437 8.00451C42.957 7.6729 42.332 7.49435 41.6561 7.49435C40.9801 7.49435 40.3552 7.66015 39.7685 7.99176C39.1818 8.32336 38.7226 8.80802 38.3528 9.43297C37.9956 10.0707 37.8171 10.8232 37.8171 11.6904C37.8171 12.5577 37.9956 13.323 38.3528 13.9862C38.7099 14.6494 39.1818 15.1468 39.7812 15.4912C40.3807 15.8355 40.9929 16.0013 41.6561 16.0013C42.332 16.0013 42.957 15.8355 43.5437 15.4912C44.1304 15.1596 44.6023 14.6621 44.9594 14.0117C45.3165 13.3612 45.495 12.596 45.495 11.7287C45.495 10.8742 45.3165 10.1089 44.9594 9.47123Z" fill="#29313D" fill-opacity="0.8"/>
<path d="M63.0829 12.7363H53.4153C53.4919 13.7439 53.8617 14.5601 54.5377 15.1723C55.2137 15.7845 56.0427 16.0906 57.012 16.0906C58.4149 16.0906 59.4098 15.5039 59.9965 14.3178H62.8151C62.4325 15.4784 61.7438 16.435 60.7362 17.1747C59.7286 17.9144 58.4915 18.2843 57.012 18.2843C55.8004 18.2843 54.7163 18.0165 53.7597 17.468C52.8032 16.9196 52.0507 16.1544 51.515 15.1723C50.9666 14.1902 50.6987 13.0424 50.6987 11.7415C50.6987 10.4405 50.9666 9.29267 51.4895 8.31061C52.0124 7.32855 52.7649 6.5633 53.7215 6.02763C54.678 5.49196 55.7749 5.22412 57.012 5.22412C58.2109 5.22412 59.2695 5.4792 60.2005 6.00212C61.1316 6.52504 61.8586 7.25202 62.3815 8.19582C62.9044 9.13963 63.1595 10.2237 63.1595 11.4481C63.1722 11.92 63.1467 12.3537 63.0829 12.7363ZM60.4429 10.6191C60.4301 9.64979 60.0857 8.88454 59.4098 8.29786C58.7338 7.71117 57.9048 7.43058 56.91 7.43058C56.0044 7.43058 55.2392 7.72392 54.5887 8.29786C53.951 8.87179 53.5684 9.64979 53.4409 10.6319H60.4429V10.6191Z" fill="#29313D" fill-opacity="0.8"/>
<path d="M69.8936 5.75979C70.5313 5.40268 71.2838 5.22412 72.1511 5.22412V7.92799H71.4879C70.4675 7.92799 69.6895 8.18307 69.1539 8.70599C68.631 9.2289 68.3631 10.1344 68.3631 11.4099V18.0675H65.7485V5.42819H68.3631V7.26477C68.7457 6.62707 69.2559 6.12966 69.8936 5.75979Z" fill="#29313D" fill-opacity="0.8"/>
<path d="M76.4749 17.7486C75.6842 17.3915 75.0592 16.8941 74.6001 16.2819C74.1409 15.657 73.8986 14.9682 73.8604 14.203H76.5642C76.6152 14.7387 76.8703 15.1851 77.3295 15.5422C77.8014 15.8993 78.3753 16.0778 79.0895 16.0778C79.8293 16.0778 80.3904 15.9376 80.7986 15.657C81.2067 15.3764 81.4108 15.0065 81.4108 14.5729C81.4108 14.101 81.1812 13.7438 80.7348 13.5143C80.2884 13.2847 79.5614 13.0296 78.5921 12.7618C77.6483 12.5067 76.8703 12.2516 76.2709 12.0093C75.6714 11.767 75.1613 11.3843 74.7149 10.8869C74.2812 10.3768 74.0644 9.71356 74.0644 8.88454C74.0644 8.20858 74.2685 7.59638 74.6639 7.0352C75.0592 6.47402 75.6332 6.04038 76.3729 5.70878C77.1126 5.37717 77.9672 5.22412 78.9365 5.22412C80.3777 5.22412 81.5383 5.59399 82.4183 6.30822C83.2984 7.0352 83.7703 8.03002 83.834 9.27992H81.2195C81.1684 8.71874 80.9389 8.25959 80.5307 7.92799C80.1226 7.59638 79.5614 7.41782 78.86 7.41782C78.1712 7.41782 77.6483 7.54536 77.2784 7.8132C76.9086 8.08104 76.73 8.41264 76.73 8.84628C76.73 9.17789 76.8576 9.47123 77.0999 9.70081C77.3422 9.93038 77.6483 10.1089 77.9927 10.2365C78.3498 10.364 78.86 10.5298 79.5487 10.7339C80.467 10.9762 81.2195 11.2313 81.8061 11.4736C82.3928 11.7287 82.903 12.0986 83.3366 12.5832C83.7703 13.0679 83.9871 13.7183 83.9998 14.5346C83.9998 15.2488 83.7958 15.8993 83.4004 16.4605C83.005 17.0216 82.4438 17.468 81.7169 17.7869C80.9899 18.1057 80.1354 18.2715 79.1533 18.2715C78.1585 18.2843 77.2657 18.1057 76.4749 17.7486Z" fill="#29313D" fill-opacity="0.8"/>
</svg>
