<svg width="69" height="19" viewBox="0 0 69 19" fill="none" xmlns="http://www.w3.org/2000/svg">
<path d="M9.20211 18.62L5.48249 12.1623H3.45477V18.62H0.807129V2.46289H6.38656C7.62643 2.46289 8.67258 2.68245 9.53791 3.10866C10.4032 3.53486 11.0361 4.12897 11.4623 4.85223C11.8885 5.57549 12.1081 6.38916 12.1081 7.29323C12.1081 8.35229 11.7981 9.30802 11.1911 10.1604C10.584 11.0258 9.64123 11.607 8.36261 11.9169L12.3664 18.6071H9.20211V18.62ZM3.46769 10.0442H6.39948C7.39396 10.0442 8.14305 9.79881 8.64675 9.29511C9.15044 8.80433 9.39584 8.13273 9.39584 7.29323C9.39584 6.45373 9.15044 5.80796 8.64675 5.3301C8.15596 4.85223 7.39396 4.61975 6.38656 4.61975H3.45477V10.0442H3.46769Z" fill="#29313D" fill-opacity="0.8"/>
<path d="M15.647 3.62541C15.3242 3.30253 15.1562 2.90215 15.1562 2.41137C15.1562 1.92059 15.3242 1.53313 15.647 1.19733C15.9699 0.861527 16.3703 0.706543 16.8611 0.706543C17.326 0.706543 17.7264 0.874443 18.0493 1.19733C18.3722 1.52021 18.5401 1.92059 18.5401 2.41137C18.5401 2.90215 18.3722 3.28961 18.0493 3.62541C17.7264 3.96121 17.326 4.11619 16.8611 4.11619C16.3703 4.11619 15.9699 3.9483 15.647 3.62541ZM18.1526 5.80811V18.6201H15.505V5.80811H18.1526Z" fill="#29313D" fill-opacity="0.8"/>
<path d="M30.8095 6.23441C31.6103 6.64771 32.2302 7.26764 32.6823 8.09422C33.1343 8.92081 33.3539 9.90237 33.3539 11.0648V18.6202H30.732V11.4651C30.732 10.3157 30.4479 9.43742 29.8667 8.8304C29.2984 8.22338 28.5106 7.91341 27.5161 7.91341C26.5216 7.91341 25.7338 8.22338 25.1526 8.8304C24.5714 9.43742 24.2744 10.3157 24.2744 11.4651V18.6202H21.6396V5.80821H24.2873V7.26764C24.7264 6.73811 25.2818 6.32482 25.9534 6.04068C26.625 5.75655 27.3482 5.60156 28.1102 5.60156C29.1047 5.60156 30.0088 5.80821 30.8095 6.23441Z" fill="#29313D" fill-opacity="0.8"/>
<path d="M42.0976 7.97784H39.7212V18.6201H37.0477V7.97784H35.5366V5.80806H37.0477V4.90398C37.0477 3.43163 37.4352 2.35966 38.223 1.68806C39.0108 1.01646 40.2378 0.680664 41.9039 0.680664V2.88919C41.1031 2.88919 40.5349 3.04417 40.212 3.34123C39.8891 3.63828 39.7212 4.16781 39.7212 4.90398V5.80806H42.0976V7.97784Z" fill="#29313D" fill-opacity="0.8"/>
<path d="M44.3704 8.73999C44.8999 7.74551 45.6361 6.97059 46.5531 6.42815C47.47 5.8857 48.4904 5.60156 49.614 5.60156C50.6214 5.60156 51.4996 5.79529 52.2487 6.19567C52.9978 6.59604 53.6048 7.08683 54.0569 7.66802V5.80821H56.7303V18.6202H54.0569V16.7088C53.6048 17.3158 52.9978 17.8195 52.2229 18.2199C51.448 18.6202 50.5697 18.8269 49.5752 18.8269C48.4774 18.8269 47.47 18.5427 46.5531 17.9745C45.6361 17.4062 44.9128 16.6184 44.3833 15.598C43.8537 14.5777 43.5825 13.4283 43.5825 12.1496C43.5825 10.871 43.8279 9.73447 44.3704 8.73999ZM53.5015 9.90237C53.1399 9.25661 52.662 8.75291 52.0679 8.41711C51.4738 8.08131 50.841 7.90049 50.1564 7.90049C49.4719 7.90049 48.8391 8.06839 48.245 8.40419C47.6638 8.73999 47.1988 9.21786 46.8243 9.86363C46.4626 10.5094 46.2818 11.2714 46.2818 12.1496C46.2818 13.0279 46.4626 13.8028 46.8243 14.4744C47.1859 15.146 47.6638 15.6497 48.2708 15.9984C48.8778 16.3471 49.4977 16.515 50.1693 16.515C50.8539 16.515 51.4867 16.3471 52.0808 15.9984C52.6749 15.6626 53.1528 15.1589 53.5144 14.5002C53.8761 13.8416 54.0569 13.0666 54.0569 12.1884C54.044 11.3231 53.8631 10.5481 53.5015 9.90237Z" fill="#29313D" fill-opacity="0.8"/>
<path d="M62.8522 1.41699V18.6202H60.2046V1.41699H62.8522Z" fill="#29313D" fill-opacity="0.8"/>
<path d="M69.0002 1.41699V18.6202H66.3525V1.41699H69.0002Z" fill="#29313D" fill-opacity="0.8"/>
</svg>
