<svg width="71" height="21" viewBox="0 0 71 21" fill="none" xmlns="http://www.w3.org/2000/svg">
<path d="M3.85178 1.99512V13.4037C3.85178 14.757 4.20593 15.7815 4.91422 16.4645C5.62251 17.1475 6.6217 17.489 7.8865 17.489C9.1766 17.489 10.1758 17.1475 10.8841 16.4645C11.5924 15.7815 11.9465 14.757 11.9465 13.4037V1.99512H14.8809V13.3531C14.8809 14.8076 14.5647 16.0471 13.9323 17.0589C13.2999 18.0708 12.4524 18.8297 11.3774 19.3229C10.3149 19.8162 9.13866 20.0692 7.84856 20.0692C6.55846 20.0692 5.39484 19.8162 4.3324 19.3229C3.28262 18.8297 2.4352 18.0708 1.82809 17.0589C1.20834 16.0471 0.904785 14.8076 0.904785 13.3531V1.99512H3.85178Z" fill="#29313D" fill-opacity="0.8"/>
<path d="M21.6477 0.844238V19.8922H18.7134V0.844238H21.6477Z" fill="#29313D" fill-opacity="0.8"/>
<path d="M25.4166 8.95184C26.0111 7.85146 26.8205 7.00405 27.8324 6.38429C28.8569 5.77719 29.9826 5.47363 31.2221 5.47363C32.3351 5.47363 33.309 5.68865 34.1438 6.13133C34.9785 6.57401 35.6362 7.11788 36.1422 7.76293V5.7013H39.1018V19.8924H36.1422V17.7802C35.6489 18.4505 34.9659 19.007 34.1058 19.4497C33.2458 19.8924 32.2719 20.1201 31.1715 20.1201C29.9573 20.1201 28.8316 19.8039 27.8197 19.1841C26.8079 18.5517 25.9984 17.679 25.4166 16.5533C24.8222 15.4276 24.5312 14.1502 24.5312 12.7336C24.5312 11.317 24.8222 10.0522 25.4166 8.95184ZM35.535 10.2419C35.1303 9.52101 34.5991 8.97714 33.954 8.5977C33.2963 8.21826 32.6007 8.02854 31.8418 8.02854C31.0829 8.02854 30.3873 8.21826 29.7296 8.58505C29.0719 8.95184 28.5533 9.49571 28.1486 10.204C27.7439 10.9123 27.5415 11.7597 27.5415 12.7463C27.5415 13.7328 27.7439 14.5802 28.1486 15.3265C28.5533 16.06 29.0845 16.6292 29.7422 17.0086C30.3999 17.4007 31.1082 17.5905 31.8418 17.5905C32.6007 17.5905 33.2963 17.4007 33.954 17.0213C34.6117 16.6419 35.1303 16.0853 35.535 15.3644C35.9398 14.6308 36.1422 13.7834 36.1422 12.7968C36.1422 11.8103 35.9398 10.9629 35.535 10.2419Z" fill="#29313D" fill-opacity="0.8"/>
<path d="M47.9428 6.13112C48.8155 5.68844 49.7768 5.47342 50.8392 5.47342C52.0914 5.47342 53.2297 5.77697 54.2415 6.37143C55.2534 6.97854 56.0502 7.82596 56.632 8.93898C57.2138 10.052 57.5047 11.3168 57.5047 12.7334C57.5047 14.15 57.2138 15.4274 56.632 16.5531C56.0502 17.6788 55.2407 18.5515 54.2289 19.1839C53.2044 19.8163 52.0787 20.1199 50.8392 20.1199C49.7388 20.1199 48.7649 19.9048 47.9175 19.4748C47.0701 19.0448 46.3997 18.5009 45.8938 17.8306V19.8922H42.9595V0.844238H45.8938V7.82596C46.3997 7.13032 47.0827 6.5738 47.9428 6.13112ZM53.9127 10.2038C53.5079 9.4955 52.9767 8.95163 52.319 8.58484C51.6613 8.21805 50.953 8.02833 50.1941 8.02833C49.4606 8.02833 48.7523 8.21805 48.0946 8.59749C47.4369 8.97693 46.9057 9.52079 46.5009 10.2417C46.0962 10.9627 45.8938 11.8101 45.8938 12.7966C45.8938 13.7705 46.0962 14.6306 46.5009 15.3642C46.9057 16.0978 47.4369 16.6416 48.0946 17.0211C48.7523 17.4005 49.4606 17.5902 50.1941 17.5902C50.953 17.5902 51.6613 17.4005 52.319 17.0084C52.9767 16.6163 53.5079 16.0598 53.9127 15.3262C54.3174 14.5927 54.5198 13.7326 54.5198 12.746C54.5198 11.7595 54.3174 10.9121 53.9127 10.2038Z" fill="#29313D" fill-opacity="0.8"/>
<path d="M62.5638 19.5256C61.6784 19.1209 60.9828 18.577 60.4642 17.8814C59.9456 17.1857 59.68 16.4142 59.6421 15.5541H62.6776C62.7282 16.1612 63.0191 16.6545 63.5377 17.0592C64.0563 17.464 64.714 17.6663 65.5108 17.6663C66.3329 17.6663 66.978 17.5019 67.4333 17.1857C67.8886 16.8695 68.1163 16.4648 68.1163 15.9589C68.1163 15.4276 67.8633 15.0356 67.3574 14.7699C66.8515 14.517 66.042 14.2261 64.9543 13.9225C63.8918 13.6316 63.0191 13.3407 62.3488 13.0751C61.6784 12.7968 61.0966 12.3795 60.616 11.8103C60.1227 11.2411 59.8824 10.4949 59.8824 9.5716C59.8824 8.81271 60.1101 8.12972 60.5527 7.49732C60.9954 6.86492 61.6405 6.37164 62.4753 6.0175C63.31 5.66335 64.2713 5.47363 65.3464 5.47363C66.9653 5.47363 68.2554 5.87837 69.242 6.70049C70.2285 7.52262 70.7597 8.623 70.823 10.0396H67.8886C67.838 9.40717 67.5851 8.90125 67.1171 8.52181C66.6491 8.14237 66.0294 7.95265 65.2325 7.95265C64.461 7.95265 63.8665 8.10443 63.4618 8.39533C63.0444 8.68624 62.842 9.07832 62.842 9.55895C62.842 9.93839 62.9812 10.2546 63.2594 10.5076C63.5377 10.7605 63.8665 10.9629 64.2586 11.1147C64.6507 11.2664 65.2325 11.4435 66.0041 11.6712C67.0285 11.9494 67.876 12.2277 68.5463 12.5059C69.204 12.7842 69.7732 13.2016 70.2538 13.7581C70.7344 14.302 70.9874 15.0356 71 15.9462C71 16.7557 70.7724 17.4766 70.3297 18.109C69.887 18.7414 69.2546 19.2473 68.4325 19.6015C67.6104 19.9556 66.6618 20.1454 65.5614 20.1454C64.4483 20.1201 63.4492 19.9303 62.5638 19.5256Z" fill="#29313D" fill-opacity="0.8"/>
</svg>
