<svg width="36" height="27" viewBox="0 0 36 27" fill="none" xmlns="http://www.w3.org/2000/svg">
<path fill-rule="evenodd" clip-rule="evenodd" d="M28.8115 10.1523L26.35 12.6138L26.3627 12.7413C26.4137 13.5576 26.3372 14.3611 26.1587 15.1519C25.9801 15.9299 25.6868 16.6951 25.2914 17.3966L25.1638 17.6389L27.6381 19.0674L27.7784 18.825C28.4799 17.5879 28.9263 16.2232 29.1304 14.833C29.3217 13.4428 29.2707 12.0271 28.9391 10.6497L28.8115 10.1523ZM29.8446 2.52531L17.8558 14.5141L5.86692 2.52531L5.68836 2.75488C3.46915 5.31845 2.18099 8.45596 1.87489 11.6827C1.55604 14.9095 2.21925 18.2383 3.89003 21.1845L4.03033 21.4269L6.53013 19.9857L6.37708 19.7433C5.28023 17.7919 4.71905 15.6365 4.68079 13.4811C4.65528 11.3129 5.15269 9.15743 6.19852 7.18055L6.2878 7.01475C7.94583 8.67278 9.60386 10.3308 11.2619 11.9761L11.2491 12.0526C11.0578 13.1367 11.1344 14.2463 11.4532 15.2794C11.7721 16.2997 12.346 17.2563 13.124 18.0343L13.2515 18.1618L9.20849 20.4958L9.43806 20.7509C9.73141 21.0825 10.0503 21.4014 10.3819 21.6947C12.5118 23.5823 15.1902 24.5261 17.8685 24.5261C20.5469 24.5261 23.2252 23.5695 25.3424 21.6819C25.674 21.3886 25.9801 21.0825 26.2862 20.7381L26.5158 20.4831L22.4982 18.1618L22.6258 18.0343C23.4038 17.2563 23.965 16.3125 24.2966 15.2794C24.6154 14.2463 24.7047 13.1495 24.5006 12.0526L24.4751 11.9888L29.3982 7.06576L29.462 7.00199L30.2782 8.69829L30.2655 8.71104L30.3165 8.87684C30.9414 10.6624 31.171 12.55 31.0052 14.3994C30.8394 16.2615 30.291 18.0725 29.3599 19.7306L29.2196 19.9729L31.7194 21.4269L31.8597 21.1845C33.5305 18.2383 34.181 14.9095 33.8749 11.6827C33.556 8.45596 32.2679 5.33121 30.0614 2.75488L29.8446 2.52531ZM6.56839 14.8202C6.77246 16.2232 7.21885 17.5879 7.92033 18.8378L8.06062 19.0801L10.5604 17.6389L10.4329 17.3966C10.0375 16.6951 9.74416 15.9299 9.5656 15.1519C9.38704 14.3611 9.32327 13.5576 9.36154 12.7413L9.37429 12.6138L6.87449 10.1267L6.7597 10.6114C6.4281 12.0016 6.36433 13.4301 6.56839 14.8202ZM35.6222 11.4404C36.0558 15.6748 34.9972 20.0494 32.3572 23.7098L32.2806 23.8119L28.0845 21.3886L27.9315 21.5672C27.3831 22.2304 26.7964 22.8171 26.1714 23.34C23.7737 25.3296 20.8147 26.3244 17.8558 26.3244C14.8968 26.3244 11.9379 25.3424 9.54009 23.3527C8.90239 22.8298 8.3157 22.2431 7.76728 21.5799L7.61423 21.4014L3.44364 23.8119L3.36712 23.7098C0.714268 20.0367 -0.344321 15.662 0.0893175 11.4404C0.522956 7.21881 2.44882 3.15026 5.77764 0.0892786L5.87967 0L17.8685 11.9888L29.8446 0L29.9339 0.0892786C33.2627 3.13751 35.1886 7.21881 35.6222 11.4404Z" fill="#29313D" fill-opacity="0.8"/>
</svg>
