<svg width="31" height="26" viewBox="0 0 31 26" fill="none" xmlns="http://www.w3.org/2000/svg">
<path fill-rule="evenodd" clip-rule="evenodd" d="M5.48902 0C5.48902 3.03511 3.03511 5.48902 0 5.48902V9.49278C5.24363 9.49278 9.49278 5.24363 9.49278 0H5.48902ZM15.4984 14.194C14.7235 15.2789 13.8582 16.2733 12.9024 17.1903C9.31196 19.9025 4.84325 21.5041 0 21.5041V25.482L0.413291 25.5078C6.08313 25.4174 11.3009 23.4801 15.4855 20.2642C19.683 23.4801 24.9008 25.4174 30.5577 25.5078L30.9968 25.4949V21.5041C26.1536 21.5041 21.6849 19.9025 18.0944 17.2032C17.1387 16.2863 16.2733 15.2789 15.4984 14.194ZM15.2659 8.56287C15.3434 8.42081 15.4209 8.27874 15.4984 8.13667C15.5759 8.27874 15.6534 8.42081 15.7309 8.56287C18.7273 13.8969 24.4487 17.5003 30.9968 17.5003V13.4965C23.5447 13.4965 17.5003 7.45216 17.5003 0H13.4965C13.4965 3.03511 12.4891 5.83774 10.8101 8.08501C8.34331 11.3784 4.41705 13.4965 0 13.4965V17.5003C4.93366 17.5003 9.40237 15.4597 12.5795 12.1663C13.6257 11.0943 14.5298 9.88024 15.2659 8.56287ZM21.504 0C21.504 5.24363 25.7532 9.49278 30.9968 9.49278V5.48902C27.9617 5.48902 25.5078 3.03511 25.5078 0H21.504Z" fill="#29313D" fill-opacity="0.8"/>
</svg>
