<svg width="31" height="30" viewBox="0 0 31 30" fill="none" xmlns="http://www.w3.org/2000/svg">
<path fill-rule="evenodd" clip-rule="evenodd" d="M26.9783 3.37703H16.8598V27.5095C16.8598 28.4454 16.101 29.1917 15.1776 29.1917C14.2417 29.1917 13.4955 28.4328 13.4955 27.5095V3.37703H3.37703V24.1198C3.37703 25.0558 4.11061 25.8273 5.05922 25.8273C5.99517 25.8273 6.74141 25.0684 6.74141 24.1451V6.7667H10.1184V24.1451C10.1184 26.9403 7.85443 29.2043 5.05922 29.2043C2.264 29.2043 0 26.9403 0 24.1451V0C10.1184 0 20.2369 0 30.3553 0V24.1325C30.3553 26.9277 28.0913 29.1917 25.2961 29.1917C22.5009 29.1917 20.2369 26.9277 20.2369 24.1325V6.74141H23.6139V24.1198C23.6139 25.0558 24.3728 25.802 25.2961 25.802C26.232 25.802 26.9783 25.0431 26.9783 24.1198V3.37703Z" fill="#29313D" fill-opacity="0.8"/>
</svg>
